<?xml version="1.0" encoding="UTF-8"?>
<svg id="Layer_1" data-name="Layer 1" xmlns="http://www.w3.org/2000/svg" viewBox="0 0 839.85 818.81">
  <defs>
    <style>
      .cls-1 {
        fill: none;
        stroke: #231f20;
        stroke-miterlimit: 10;
        stroke-width: .5px;
      }
    </style>
  </defs>
  <path class="cls-1" d="M264.72,134.46c-12.3-13.76-27.14-24.94-43.94-32.58C165.54,76.74,78.73,66.64,29.94,33.83c64.31,117.62,52.53,260.03,189.78,294.76-55.81,13.38-109.52,92.68-163.53,123.83,86.65-34.72,83.96,43.52,238.23-22.88,44.42-23.61,35.72-82.81,34.99-113.06,2.22-73.55-26.97-139.82-64.69-182.02Zm59.19,260.75c-.15,.41-.46,.74-.85,.93-136.06,66.87-195.98,31.06-197.33,29.03-1.36-2.03,53.1-81.69,174.16-98.94-140.32,18.81-213.22-161.94-204.66-228.37,106.75,6.46,184.32,42.49,227.58,191.84,1.85,6.38,3.15,12.9,3.89,19.5,3.01,26.57,8.46,55.6-2.8,86.01Z"/>
  <g>
    <path class="cls-1" d="M210.25,87.89c13.55,2.98,25.21,13.35,25.21,13.35l6.67-62.66s120.5,46.72,121.99,133.85c2.99,3.33,11.83,4.26,14.83,10.01C366.13,70.96,296.56,47.16,232.87,.39c-14.77,34.64-13.39,59.65-22.62,87.5Z"/>
    <path class="cls-1" d="M165.81,312.6c-7.86,5.21-49.16,28.78-81.38,42.12,21.77,1.55,51.75,19.27,51.75,19.27l16.06-15.35s-22.48-2.91-28.33-9.29c14.89-10.28,58.31-28.9,58.31-28.9l-16.42-7.85Z"/>
  </g>
  <g>
    <path class="cls-1" d="M785.55,306.66l-195.93-17.4s8.92-2.03,8.02-5.46c-5.44-2.6-30.02,3.58-30.02,3.58l-22.01-1.02s.82-1.62,.51-2.05c-.57-.8-2.1-.84-3.92-.34-2.43,3.06-7.36,9.9-5.8,13.14,.52,1.07,2.64,1.54,4.39,1.01,.5-.64,.19-1.75,.73-2.38,3.38,.45,13.65,.68,13.65,.68,0,0-9.18,18.96-65.34,26.44-.11,1.78,6.21,3.5,6.21,3.5,.81,.45,.76,1.63-.09,2-3.44,1.48-10.34,4.52-14.32,6.64-1.29,.69-2.82,.5-3.96-.4-12.48-9.92-29.55-16.9-45.3-27.51-3.6-2.42-6.72-5.46-9.59-8.71-5.84-6.61-16.7-13.68-21.03-16.95,.06-2.19,9.76-5.79,9.76-5.79,0,0-3.36-.26-7.92-.7,3.6-4.93,9.31-7.93,15.51-7.45,4.36,.34,8.44,.91,10.48-.96,2.48-3.16,.15-6.53,1.35-8.82,.94-1.78,3.54-3.6,1.8-7.85,4.83-4.41-1.96-5.81-1.15-7.53,.86-1.8,5.79-3.41,5.89-5.4-16.77-9.18-12.24-22.2-18.33-28.31-1.17-3.28,2.74-6.23,5.72-2.18,1.08,1.46,1.19,4.4,.82,9.38,4.43-6.24,8.12-19.78-16.53-26.02-7.67-4.23-17.86-1.24-22.75-.7-1.09,.12-2.17-.02-3.18-.43-2.45-1-7.75-2.58-12.85-.17-1.05-.57-2.54-3.48-1.8-4.42,.76-.97,3.55,1.15,4.91-.49-3.88-4.09-6.96-.85-8.84-2.13-2.93-1.99-5.49-6.12-11.88-5.93-2.59,.08-5.1,.96-7.3,2.33-3.1,1.92-5.01,6.52-4.71,12.77-2.44,.74-6.46,4.77-2.95,11.97,.5,1.03,.32,2.26-.36,3.19-2.23,3.03-5.04,7.08,6.26,11.35-7.43,1.99-9.07,7.29-7.2,9.66,4.12-7.6,8.89-3.82,10.96-1.96,1.21,1.08,1.12,3.06,.84,5.41-.6,4.92,.84,9.88,3.85,13.83,1.46,1.91,2.84,3.8,3.33,5.31,.61,1.86,.33,6.1,1.47,7.69,1.44,2.01,6.48,3.67,8.84,4.42,2.26,.72,7.46,1.15,9,2.95,.85,1,1.3,3.48,1.54,5.84-1.28-.32-7.97-2.21-8.41-1.16,4.3,2.16,5.16,4.38,5.17,5.47-69.44,38.68-18.81,96.45-65.27,145.33-15.94,15.49-48.64,22.97-64.11,46.96-2.47,3.81-14.34,15.41-18.88,15.36-9.81-.1-22.74-4.92-31.72-11.52-4.19,29.26,19.46,32.48,24.97,36.19-6.23,7.49-18.12,3.78-26.78,1.45,1.49,4.71,7.61,13.03,16.43,23.1-19.07,15.04-45.61,44.22-54.33,61.27-14.5,1.46-32.47,8.36-39.93,12.11,3.95-9.61,3.58-16.42-.65-17.35,1.83,21.73-28.85,29.22-41.89,28.8,.65-11.61-6.6-16.15-12.44-18.66-4.37,.89-16.41,20.25-29.76,37.9-1.24,1.64-2.58,3.21-3.96,4.72-19.78,21.6-27.08,32.67-23.72,46.52,1.82,7.5,8.35,13.16,16.04,13.67,5.51,.37,11.78-.47,17.07-2.49,6.36-2.43,10.82-8.58,10.4-15.37-.25-4.08-2.19-7.94-7.68-9.35,3.4,14.75-1.32,18.19-6.71,17.33-8.02-1.28-12.01-10.63-8.04-17.71,6.27-11.19,15.8-17,23.35-20.7,1.77-.87,3.58-1.64,5.42-2.35,19.52-7.52,59.67-25.24,70.76-11.26,1.75-2.7-3.27-12.44-3.27-12.44,0,0,40.05-3.87,55.52-15.78,3.45-2.65,7-5.14,10.88-7.1,15.6-7.87,41.67-24.79,56.05-33.53,1.52-.92,3.46,.24,3.33,2.01-.93,12.31-14.52,51.35-10.2,86.22,.16,1.33-.69,2.59-2,2.87-6.59,1.37-12.29-1.27-24.22,11.79-1.42-16.37-9.57-16.2-13.42-13.42,23.25,16.57-43.86,70.04-43.86,70.04,0,0-7-5.14-14.34-7.43-4.53-1.42-10.34,.96-12.51,5.18-2.13,4.13-2.64,8.09-2.65,11.61,0,3.49,.51,6.97,1.48,10.32,6.51,22.4-2.35,55.31,7.4,63.78,4.25,4.06,9.56,7.86,20.82,4.79,5.93-1.62,10.9-5.93,13-11.71,3.78-10.43-2.98-15.61-6.98-14.68,4.91,13.83,.35,17.09-4.39,16.43-4.07-.57-7.01-4.25-7.3-8.35-.79-11.12,.19-16.3,2.94-23.87,2.05-5.65,4.68-11.08,7.91-16.15,27.01-42.47,67.21-62.6,70.96-48.89,6.61-6.09-5.64-15.4-5.64-15.4,0,0,7.5-1.91,18.36-7.39,11.49-5.8,20.28-15.85,24.81-27.9,7.46-19.86,19.09-42.71,22.57-57.41,11.38,10.31,25.58,20.39,31.33,20.25-12.32-17.02-8.67-22.44-5.45-27.6,.46-.73,1.43-.91,2.1-.37,10.63,8.54,42.64,29.74,49.4-16.42-11.93,7.63-20.8,16.98-27.19,4.48-2.65-5.19-2.36-11.41,.25-16.62,43.59-75.07,17.38-89.49,18.3-124.82,2.33-45.84,30.23-46.27,47.37-51.04,.19-.05,.37-.11,.55-.16,0,0,0,0,0,0,8,9.28,17.98,28.33,17.98,28.33,0,0-5.9-.44-6.54,1.09,24.41,18.77,35.23,49.57,35.23,49.57,0,0,.92,10.65,2.72,13.62,1.13,1.86,5.37,4.91,7.95,6.65,.69,.47,1.58-.19,1.34-.98,0,0-6.09-10.14-3.66-12.2,1.89-1.6,7.81,2.13,8.9,4.36,.99,2.04-1.07,7.32,.36,9.08,.49,.6,2.39,.01,3.09,.36,1.89,.96,2.24,7.27,4.36,7.26,1.02,0,.78-3.05,1.45-3.81,.1-.12,.28-.2,.5-.27,1.53-.47,2.65-1.86,2.64-3.46-.05-9.89-3.2-19.4-7.13-24.6-10.53-13.92-31.36-17.98-33.59-61.19-1.87,.05-3.27,6.72-3.27,6.72l-15.58-35.06c2.7-6.45,4.58-15.86,5.45-29.97,.03-.47,.02-.95,0-1.43,14.31,1.41,30.06,9.58,44.53,14.5,1.81,.35,3.55,.95,5.24,1.69,4.39,1.92,7.32,.45,9.33-1.6,1.34-1.36,2.89-2.46,4.5-3.48,8.45-5.36,22.47-16.77,22.47-16.77,0,0,.31,8.99,2.73,9.72-.83-13.31,27.42-29.09,38.83-34.9,2.65-1.35,5.51-2.17,8.47-2.44,3.84-.35,9.6-1.46,12.42-4.98,6.33-2.02,8.36-7.85,8.36-7.85l202.78,11.77,.14-2.9Z"/>
    <path class="cls-1" d="M785.88,306.08l-.37,3.85-5.62,10.66,11.47-11.47-8.66-13.39s3.18,10.06,3.18,10.36Z"/>
    <path class="cls-1" d="M839.31,313.1l-25.81-9.11,2.13-20.45c.04-.43-.51-.65-.77-.31l-12.95,16.98-24.26-16.51c-.36-.25-.81,.17-.59,.55l14.29,24.86-20.26,21.19c-.28,.29,.04,.76,.42,.61l27.98-11.83,9.97,18.83c.23,.43,.87,.28,.89-.2l.99-20.25,27.88-3.55c.44-.06,.51-.67,.09-.82Z"/>
  </g>
  <path class="cls-1" d="M408.52,189.4c-9.19,4.56-11.52,6.38-17.49,13.89-3.54-3.48,3.95-13.87,9.92-15.6-1.44-4.24-1.27-11.22,1.64-11.65,.39,9.82,2.83,10.04,5.93,13.36Z"/>
</svg>